<?xml version="1.0" encoding="UTF-8"?>
<svg id="Layer_1" xmlns="http://www.w3.org/2000/svg" viewBox="0 0 589.09 589.09">
  <polygon points="589.09 589.09 407.78 317.13 346.51 357.97 500.59 589.09 589.09 589.09"/>
  <polygon points="88.5 0 0 0 181.31 271.97 242.58 231.12 88.5 0"/>
  <path d="M405,73.64c61,0,110.45,49.45,110.45,110.45s-49.45,110.45-110.45,110.45h-110.45v-110.45c0-61,49.45-110.45,110.45-110.45M294.55,294.55v110.45c0,61-49.45,110.45-110.45,110.45s-110.45-49.45-110.45-110.45,49.45-110.45,110.45-110.45h110.45M405,0c-101.51,0-184.09,82.58-184.09,184.09v36.82h-36.82C82.58,220.91,0,303.49,0,405s82.58,184.09,184.09,184.09,184.09-82.58,184.09-184.09v-36.82h36.82c101.51,0,184.09-82.58,184.09-184.09S506.51,0,405,0h0Z"/>
</svg>