<?xml version="1.0" encoding="UTF-8"?>
<svg id="Layer_1" xmlns="http://www.w3.org/2000/svg" viewBox="0 0 1077.06 589.09">
  <style>
    .logo-fill {
      fill: #ffffff !important;
    }
  </style>
  <g class="logo-fill">
    <polygon points="589.09 589.09 407.78 317.13 346.51 357.97 500.59 589.09 589.09 589.09"/>
    <polygon points="88.5 0 0 0 181.31 271.97 242.58 231.12 88.5 0"/>
    <path d="M405,73.64c61,0,110.45,49.45,110.45,110.45s-49.45,110.45-110.45,110.45h-110.45v-110.45c0-61,49.45-110.45,110.45-110.45M294.55,294.55v110.45c0,61-49.45,110.45-110.45,110.45s-110.45-49.45-110.45-110.45,49.45-110.45,110.45-110.45h110.45M405,0c-101.51,0-184.09,82.58-184.09,184.09v36.82h-36.82C82.58,220.91,0,303.49,0,405s82.58,184.09,184.09,184.09,184.09-82.58,184.09-184.09v-36.82h36.82c101.51,0,184.09-82.58,184.09-184.09S506.51,0,405,0h0Z"/>
  </g>
  <g class="logo-fill">
    <path d="M741.67,259.4v30.24h-94.25v-24.35l52.63-82.87h-51.64v-30.24h92.29v24.35l-52.63,82.87h53.61Z"/>
    <path d="M830.03,259.4v30.24h-86.4v-137.46h85.42v30.24h-54v22.78h49.09v29.85h-49.09v24.35h54.98Z"/>
    <path d="M879.32,244.48h-14.92v45.16h-31.42v-137.46h54.98c26.12,0,47.13,21.01,47.13,47.13,0,16.89-10.21,32.2-25.33,39.86l29.26,50.47h-33.78l-25.92-45.16ZM864.4,216.98h23.56c8.64,0,15.71-7.66,15.71-17.67s-7.07-17.67-15.71-17.67h-23.56v35.35Z"/>
    <path d="M931.16,220.91c0-40.45,32.01-71.48,71.48-71.48s71.48,31.03,71.48,71.48-32.01,71.48-71.48,71.48-71.48-31.03-71.48-71.48ZM1042.69,220.91c0-24.55-17.67-40.84-40.06-40.84s-40.06,16.3-40.06,40.84,17.67,40.84,40.06,40.84,40.06-16.3,40.06-40.84Z"/>
    <path d="M710.25,299.46v137.46h-31.42v-54.59h-43.2v54.59h-31.42v-137.46h31.42v52.63h43.2v-52.63h31.42Z"/>
    <path d="M713.19,368.19c0-40.45,32.01-71.48,71.48-71.48s71.48,31.03,71.48,71.48-32.01,71.48-71.48,71.48-71.48-31.03-71.48-71.48ZM824.73,368.19c0-24.55-17.67-40.84-40.06-40.84s-40.06,16.3-40.06,40.84,17.67,40.84,40.06,40.84,40.06-16.3,40.06-40.84Z"/>
    <path d="M857.13,392.53v-93.08h31.42v90.33c0,10.41,4.91,19.24,21.6,19.24s21.6-8.84,21.6-19.24v-90.33h31.42v93.08c0,29.46-22.78,47.13-53.02,47.13s-53.02-17.67-53.02-47.13Z"/>
    <path d="M1017.36,391.75h-14.92v45.16h-31.42v-137.46h54.98c26.12,0,47.13,21.01,47.13,47.13,0,16.89-10.21,32.2-25.33,39.86l29.26,50.47h-33.78l-25.92-45.16ZM1002.44,364.26h23.56c8.64,0,15.71-7.66,15.71-17.67s-7.07-17.67-15.71-17.67h-23.56v35.35Z"/>
  </g>
</svg>